<?xml version="1.0" encoding="utf-8"?>
<!-- Generator: Adobe Illustrator 19.2.1, SVG Export Plug-In . SVG Version: 6.00 Build 0)  -->
<svg version="1.1" id="layer" xmlns="http://www.w3.org/2000/svg" xmlns:xlink="http://www.w3.org/1999/xlink" x="0px" y="0px"
	 viewBox="0 0 652 652" style="enable-background:new 0 0 652 652;" xml:space="preserve">
<style type="text/css">
	.st0{fill:#007D32;}
	.st1{fill:#F9B000;}
</style>
<path class="st0" d="M231.5,269.7c5.5-1.3,12.7-2.1,20.3-2.1c9.3,0,18.2,1.7,24.6,7.2c5.1,4.7,7.2,11,7.2,18.6
	c0,9.7-5.1,18.6-15.3,22.9v0.4c11.9,3.4,18.6,13.1,18.6,25.4c0,8.5-3,15.3-7.6,20.3c-5.9,6.8-16.1,10.2-30.9,10.2
	c-7.6,0-13.1-0.4-17.4-1.3V269.7H231.5z M248.1,311.6h4.7c8.5,0,15.3-6.8,15.3-16.1c0-8.5-3.8-15.3-14-15.3c-2.5,0-4.7,0-5.9,0.4
	C248.1,280.7,248.1,311.6,248.1,311.6z M248.1,359.5c1.3,0.4,3,0.4,5.1,0.4c10.2,0,17.4-5.9,17.4-17.8c0-12.3-8.5-18.2-17.8-18.2
	h-4.7V359.5z M342.6,324.8H318v33.1h28v14.4h-44.5V268.4h42.4v14.4h-26.3v28.4h24.6v13.6H342.6z M359.1,372.2V268.4h15.3l17.4,44.5
	c3.8,9.3,8.9,22.9,12.3,32.6h0.4c-0.8-13.1-1.7-29.2-1.7-47.9v-29.2h14.4v103.8h-15.3l-17.8-44.1c-3.8-9.7-8.5-22-11.4-33.1h-0.4
	c0.8,11.9,1.3,26.7,1.3,48.3v28.8C373.5,372.2,359.1,372.2,359.1,372.2z M435.4,269.7c4.7-1.3,11.4-2.1,18.6-2.1
	c11.9,0,20.8,3,26.7,8.5c8.5,7.6,13.6,21.2,13.6,41.9c0,22.5-5.5,36.4-13.6,44.1c-6.8,7.2-16.9,10.6-30.5,10.6
	c-5.5,0-11.4-0.4-15.3-1.3V269.7H435.4z M451.5,359.1c1.3,0.4,3,0.4,3.8,0.4c11.4,0,21.6-9.7,21.6-41.1c0-23.7-6.8-37.3-20.8-37.3
	c-1.7,0-3.4,0-4.7,0.4V359.1z M548.5,324.8h-24.6v33.1h28v14.4h-44.5V268.4h42.8v14.4h-26.3v28.4h24.6V324.8z M565.4,269.7
	c5.5-1.3,13.1-2.1,19.5-2.1c10.6,0,19.9,1.7,25.8,7.6c5.9,5.5,8.1,12.3,8.1,21.2c0,11.9-5.9,21.2-16.5,26.3v0.4
	c7.2,2.5,11,9.7,13.1,22c2.1,12.7,4.7,23.7,6.4,27.1h-16.9c-1.3-3-3.4-13.1-5.1-25.4c-2.1-13.6-5.9-17.8-14-17.8H582v43.2h-16.5
	L565.4,269.7L565.4,269.7z M581.5,316.3h4.2c9.7,0,16.1-7.6,16.1-18.2c0-10.2-4.2-16.9-14.8-17.4c-2.1,0-4.2,0-5.5,0.4V316.3z
	 M29.4,357.8h41.9l-14.8,14.8h63.1l-14.8,14.8H36.6c-8.1,0-14.8-6.4-14.8-14.8V268.8c0-8.1,6.8-14.8,14.8-14.8h96.6L29.4,357.8
	L29.4,357.8L29.4,357.8z"/>
<path class="st1" d="M199.8,313.3c0,24.2-11.9,45.8-29.7,59.3h29.7l-14.8,14.8h-59.3L199.8,313.3L199.8,313.3L199.8,313.3z
	 M137.1,313.3H179l-44.5,44.5H92.6l14.8-14.8H65.4l89-89l20.8,21.2L137.1,313.3L137.1,313.3z"/>
</svg>
