<?xml version="1.0" encoding="UTF-8"?>
<svg id="uuid-40c2df6f-32fd-4614-ada1-3cdbed792563" xmlns="http://www.w3.org/2000/svg" version="1.1" viewBox="0 0 621.3 170.3">
  <!-- Generator: Adobe Illustrator 29.7.1, SVG Export Plug-In . SVG Version: 2.1.1 Build 8)  -->
  <defs>
    <style>
      .st0 {
        fill: #fff;
      }

      .st1 {
        fill: #231f20;
      }
    </style>
  </defs>
  <path class="st1" d="M152.4,72.1c-.4-2.1-3-3.6-3.4-3.8,0,0-5.4-3.1-12-6.9h0c-.7-3.3-2.1-7.6-4.6-10.2,2.3.5,4.5,2,6.4,3.7-1.8-5.5-7-13.2-15.4-19.5.2-.9.3-1.9.3-2.9v-.4c-.2-5.4-3.1-9.2-5.8-12.6l-1.3-1.7c-5-6.6-6.6-11.1-7.9-17,0-.4-.4-.7-.8-.7-.4,0-.7.1-.9.5-.2.4-4.5,9.2,1.4,21.9.9,1.9,1.3,3.7,1.2,5.4-4.5-1.6-9.4-2.8-14.8-3.2,0,0,3.7-2.9,11-.4,0,0-7.5-10.1-22.6-6.8,0,0,3.3-4.7,10.7-4.7,0,0-9.6-3.8-17.5,3.1,0,0-4.7-8.2-15.1-1.9,0,0,7.6-1.3,8.8,4.4,0,0-10-4.1-16.3.6,0,0-1.8,1.5-2.5,2.9,0,0-1,2.6-4.4,3.2,0,0,3.3,3,9.4-.4,0,0-3.6,5.6-13.1,4.8-.6-2.1-.3-4.4.9-7,5.9-12.7,1.6-21.5,1.4-21.9-.2-.3-.5-.5-.9-.5-.4,0-.7.3-.8.7-1.3,5.9-3,10.4-7.9,17l-1.3,1.7c-2.5,3.2-5.4,6.9-5.7,12-2,1.1-3.9,2.6-5.6,4.8,0,0,3.4-1.1,5.9-.7.1.5.3.9.4,1.4-2.7,1.1-8.3,4.6-10,14.2,0,0,3.7-3.6,6.9-2.6-4.1,3.9-5.7,7.5-6.3,10-8.5,5-16.6,9.6-16.6,9.6-.4.2-3,1.7-3.4,3.8C0,72.2,0,72.4,0,72.5c0,.3,0,.7.2.9.2.4,1,1.5,2.9,1.5h0c.4,0,4.5.3,9.6.4-2.2,3.6-3.2,8.2-1.5,14,0,0,2.2-10.4,16.8-12.8,0,0-13,8.4-7.7,32.8,0,0,1.5-9,10.6-15.5,0,0-6.5,14.8-1.6,29.8,0,0,3.7,12.6.3,17.8,0,0,5.7-1.2,7.4-7.6.5-1.8.1-3.9.6-6.4.4-2.3,1.4-4.9,3.5-6.9,0,0-.2,23.3,13.7,35.3,0,0-1.6-9.4,2.5-11.8,0,0,2.7,29,23.2,26.1,0,0-2.5-.4-3.2-4.3,0,0-.6-3.8,3.1-4.6.3,0,1,0,1.3.3.4.5.6,1.7-.6,3.2,2.1-.6,9.8-4.6,12-15,0,0,2.3,8.8-3.3,14.2,0,0,11.8-5.1,13.2-24.2,0,0,2.5,2.8,2,10.7,0,0,10.2-4.6,11.3-33.2,0,0,3.1,3.4,2.4,11.7,0,.6-.2,2.6.2,3.6.5,1.2,1.4,2.7,2.9,2.8,0,0-.7-2.9,1.3-5.3,0,0,7.1-10.1,7.9-21.1,0,0,1.1-10.6-3.6-20.6,0,0,6.5,2.4,10.4,12.9,0,0,2.7-10.3-3.4-25.7,7.4,0,14.4-.5,14.9-.5h0c1.9,0,2.6-1,2.9-1.5.1-.3.2-.6.2-.9s0-.3,0-.5"/>
  <path class="st0" d="M42.6,32.4c-1-1.6-1.5-3.4-1.5-5.2s.5-3.6,1.3-5.5c2.2-4.8,2.9-9.1,2.9-12.4s-.3-3.8-.5-5.1c-1.3,4.8-3.2,8.9-7.5,14.6l-1.3,1.7c-2.6,3.3-5.2,6.7-5.4,11.5v.3c0,7.2,6.2,11.6,11.4,14,.3.1.5.4.5.8h0c0,.4-.2.7-.5.8,0,0-37.7,21.8-37.7,21.8-.6.3-2.3,1.5-2.5,2.6h0c0,0,0,.1,0,.1h0c.1.3.4.6,1.3.6h0c.2,0,24.1,1.5,30.4-.6.3-.2,3.6-1.6,5.2-2.9,0,0,6.1-5.2,7.2-12,0-.4.5-.8.9-.8.5,0,.8.3.9.8,0,0,0,.8,0,2,0,2.5-.3,7.2-2.1,13.1,0,0-.2.7-.2,1.8s0,2.1.5,3.4c.8,2.9,2.8,7.4,8.5,12.1.2.1.3.3.3.5l3.2,16.5c0,0,0,.1,0,.2v.4c0,1.5,0,7.1-1.2,9.5-.7,1.6-1.1,3.2-1.1,4.6s.6,3.6,1.7,5.3c3.1,4.6,7.3,7.3,18.8,6.8V43.1c-11-.1-28.4-2.5-33.7-10.7"/>
  <path d="M49.2,72.1s4.5,5.3,12.6,7l-2.5,8.2s-11.1-4.8-10.1-15.2"/>
  <path d="M60.2,125.3c0-1.3,1-3.2,3-3.5,1.2-.2,4,.5,4,3.2,0,0-.2,3.6-3.2,3.6s-3.8,0-3.8-3.2"/>
  <path class="st0" d="M103.2,72.1s-4.5,5.3-12.6,7l2.5,8.2s11.1-4.8,10.1-15.2"/>
  <path class="st0" d="M92.3,125.3c0-1.3-1-3.2-3-3.5-1.2-.2-4,.5-4,3.2,0,0,.2,3.6,3.2,3.6s3.8,0,3.8-3.2"/>
  <path class="st1" d="M0,72.1H0s0,0,0,0H0"/>
  <path class="st1" d="M152.4,72.1c-.4-2.1-3-3.6-3.4-3.8,0,0-5.4-3.1-12-6.9h0c-.7-3.3-2.1-7.6-4.6-10.2,2.3.5,4.5,2,6.4,3.7-1.8-5.5-7-13.2-15.4-19.5.2-.9.3-1.9.3-2.9v-.4c-.2-5.4-3.1-9.2-5.8-12.6l-1.3-1.7c-5-6.6-6.6-11.1-7.9-17,0-.4-.4-.7-.8-.7-.4,0-.7.1-.9.5-.2.4-4.5,9.2,1.4,21.9.9,1.9,1.3,3.7,1.2,5.4-4.5-1.6-9.4-2.8-14.8-3.2,0,0,3.7-2.9,11-.4,0,0-7.5-10.1-22.6-6.8,0,0,3.3-4.7,10.7-4.7,0,0-9.6-3.8-17.5,3.1,0,0-4.7-8.2-15.1-1.9,0,0,7.6-1.3,8.8,4.4,0,0-10-4.1-16.3.6,0,0-1.8,1.5-2.5,2.9,0,0-1,2.6-4.4,3.2,0,0,3.3,3,9.4-.4,0,0-3.6,5.6-13.1,4.8-.6-2.1-.3-4.4.9-7,5.9-12.7,1.6-21.5,1.4-21.9-.2-.3-.5-.5-.9-.5-.4,0-.7.3-.8.7-1.3,5.9-3,10.4-7.9,17l-1.3,1.7c-2.5,3.2-5.4,6.9-5.7,12-2,1.1-3.9,2.6-5.6,4.8,0,0,3.4-1.1,5.9-.7.1.5.3.9.4,1.4-2.7,1.1-8.3,4.6-10,14.2,0,0,3.7-3.6,6.9-2.6-4.1,3.9-5.7,7.5-6.3,10-8.5,5-16.6,9.6-16.6,9.6-.4.2-3,1.7-3.4,3.8C0,72.2,0,72.4,0,72.5c0,.3,0,.7.2.9.2.4,1,1.5,2.9,1.5h0c.4,0,4.5.3,9.6.4-2.2,3.6-3.2,8.2-1.5,14,0,0,2.2-10.4,16.8-12.8,0,0-13,8.4-7.7,32.8,0,0,1.5-9,10.6-15.5,0,0-6.5,14.8-1.6,29.8,0,0,3.7,12.6.3,17.8,0,0,5.7-1.2,7.4-7.6.5-1.8.1-3.9.6-6.4.4-2.3,1.4-4.9,3.5-6.9,0,0-.2,23.3,13.7,35.3,0,0-1.6-9.4,2.5-11.8,0,0,2.7,29,23.2,26.1,0,0-2.5-.4-3.2-4.3,0,0-.6-3.8,3.1-4.6.3,0,1,0,1.3.3.4.5.6,1.7-.6,3.2,2.1-.6,9.8-4.6,12-15,0,0,2.3,8.8-3.3,14.2,0,0,11.8-5.1,13.2-24.2,0,0,2.5,2.8,2,10.7,0,0,10.2-4.6,11.3-33.2,0,0,3.1,3.4,2.4,11.7,0,.6-.2,2.6.2,3.6.5,1.2,1.4,2.7,2.9,2.8,0,0-.7-2.9,1.3-5.3,0,0,7.1-10.1,7.9-21.1,0,0,1.1-10.6-3.6-20.6,0,0,6.5,2.4,10.4,12.9,0,0,2.7-10.3-3.4-25.7,7.4,0,14.4-.5,14.9-.5h0c1.9,0,2.6-1,2.9-1.5.1-.3.2-.6.2-.9s0-.3,0-.5"/>
  <path class="st0" d="M42.6,32.4c-1-1.6-1.5-3.4-1.5-5.2s.5-3.6,1.3-5.5c2.2-4.8,2.9-9.1,2.9-12.4s-.3-3.8-.5-5.1c-1.3,4.8-3.2,8.9-7.5,14.6l-1.3,1.7c-2.6,3.3-5.2,6.7-5.4,11.5v.3c0,7.2,6.2,11.6,11.4,14,.3.1.5.4.5.8h0c0,.4-.2.7-.5.8,0,0-37.7,21.8-37.7,21.8-.6.3-2.3,1.5-2.5,2.6h0c0,0,0,.1,0,.1h0c.1.3.4.6,1.3.6h0c.2,0,24.1,1.5,30.4-.6.3-.2,3.6-1.6,5.2-2.9,0,0,6.1-5.2,7.2-12,0-.4.5-.8.9-.8.5,0,.8.3.9.8,0,0,0,.8,0,2,0,2.5-.3,7.2-2.1,13.1,0,0-.2.7-.2,1.8s0,2.1.5,3.4c.8,2.9,2.8,7.4,8.5,12.1.2.1.3.3.3.5l3.2,16.5c0,0,0,.1,0,.2v.4c0,1.5,0,7.1-1.2,9.5-.7,1.6-1.1,3.2-1.1,4.6s.6,3.6,1.7,5.3c3.1,4.6,7.3,7.3,18.8,6.8V43.1c-11-.1-28.4-2.5-33.7-10.7"/>
  <path d="M49.2,72.1s4.5,5.3,12.6,7l-2.5,8.2s-11.1-4.8-10.1-15.2"/>
  <path d="M60.2,125.3c0-1.3,1-3.2,3-3.5,1.2-.2,4,.5,4,3.2,0,0-.2,3.6-3.2,3.6s-3.8,0-3.8-3.2"/>
  <path class="st0" d="M103.2,72.1s-4.5,5.3-12.6,7l2.5,8.2s11.1-4.8,10.1-15.2"/>
  <path class="st0" d="M92.3,125.3c0-1.3-1-3.2-3-3.5-1.2-.2-4,.5-4,3.2,0,0,.2,3.6,3.2,3.6s3.8,0,3.8-3.2"/>
  <path class="st1" d="M0,72.1H0s0,0,0,0H0"/>
  <polygon class="st1" points="420 83.2 442.3 54.8 423.1 54.8 401.2 82.8 401.2 54.8 382.9 54.8 382.9 116.1 401.2 116.1 401.2 87 421.4 116.1 443.1 116.1 420 83.2"/>
  <path class="st1" d="M308.6,54.8h-19.5l-19,47.9h-21v-47.9h-18.3v61.3h51.9l15.9-42.3c0-.2.3-.5.5,0l16,42.2h17.9l-24.4-61.3h0Z"/>
  <path class="st1" d="M361.8,103.6c-12.1-2-15.2-12-15.2-17.9s3.2-15.9,15.2-17.9c7.8-1.3,15.5,3.3,16.1,3.6v-13.3c-3.7-1.8-9.9-4.4-20.4-3.9-10,.5-29.3,6.3-29.3,31.5v.3c1,25.3,18,30.4,29.3,31.2,10.5.7,16.6-2.1,20.4-3.9v-13.3c-.6.2-8.3,4.9-16.1,3.6"/>
  <polygon class="st1" points="493.9 54.9 480.9 75.1 467.9 54.9 449.3 54.9 471.2 90.1 471.2 116.1 472 116.1 489.8 116.1 490.6 116.1 490.6 90.1 512.5 54.9 493.9 54.9"/>
  <path class="st1" d="M598.2,83.2l22.2-28.5h-18.9l-22.1,28v-28h-18.3v52.7l-21-52.7h-19.4l-24.3,61.3h17.9l15.9-42.3s0-.2.2-.2.2.1.2.1l15.8,42.4h32.9v-29l20.1,29h21.8l-23-32.8Z"/>
  <path class="st1" d="M202.4,105.1h-10.7v-14.7h10.7c4.1,0,7.4,3.3,7.4,7.4s-3.3,7.4-7.4,7.4M191.7,65.8h9.9c3.8,0,6.8,3.1,6.8,6.8s-3.1,6.8-6.8,6.8h-9.9v-13.6ZM216,82.6l-.5-.2.5-.3c5.6-2.8,8.3-6.9,8.3-12.6s-1.3-14.7-17.5-14.7h-33.4v61.3h37.8c9.6,0,16.3-7.1,16.3-17.3s-3.5-12.9-11.4-16.2"/>
  <polygon class="st1" points="420 83.2 442.3 54.8 423.1 54.8 401.2 82.8 401.2 54.8 382.9 54.8 382.9 116.1 401.2 116.1 401.2 87 421.4 116.1 443.1 116.1 420 83.2"/>
  <path class="st1" d="M308.6,54.8h-19.5l-19,47.9h-21v-47.9h-18.3v61.3h51.9l15.9-42.3c0-.2.3-.5.5,0l16,42.2h17.9l-24.4-61.3h0Z"/>
  <path class="st1" d="M361.8,103.6c-12.1-2-15.2-12-15.2-17.9s3.2-15.9,15.2-17.9c7.8-1.3,15.5,3.3,16.1,3.6v-13.3c-3.7-1.8-9.9-4.4-20.4-3.9-10,.5-29.3,6.3-29.3,31.5v.3c1,25.3,18,30.4,29.3,31.2,10.5.7,16.6-2.1,20.4-3.9v-13.3c-.6.2-8.3,4.9-16.1,3.6"/>
  <polygon class="st1" points="493.9 54.9 480.9 75.1 467.9 54.9 449.3 54.9 471.2 90.1 471.2 116.1 472 116.1 489.8 116.1 490.6 116.1 490.6 90.1 512.5 54.9 493.9 54.9"/>
  <path class="st1" d="M598.2,83.2l22.2-28.5h-18.9l-22.1,28v-28h-18.3v52.7l-21-52.7h-19.4l-24.3,61.3h17.9l15.9-42.3s0-.2.2-.2.2.1.2.1l15.8,42.4h32.9v-29l20.1,29h21.8l-23-32.8Z"/>
  <path class="st1" d="M202.4,105.1h-10.7v-14.7h10.7c4.1,0,7.4,3.3,7.4,7.4s-3.3,7.4-7.4,7.4M191.7,65.8h9.9c3.8,0,6.8,3.1,6.8,6.8s-3.1,6.8-6.8,6.8h-9.9v-13.6ZM216,82.6l-.5-.2.5-.3c5.6-2.8,8.3-6.9,8.3-12.6s-1.3-14.7-17.5-14.7h-33.4v61.3h37.8c9.6,0,16.3-7.1,16.3-17.3s-3.5-12.9-11.4-16.2"/>
</svg>