<?xml version="1.0" encoding="UTF-8" standalone="no"?>
<svg
   viewBox="0 0 4622.7266 1014.1515"
   version="1.1"
   id="svg1"
   sodipodi:docname="logo.svg"
   width="4622.7266"
   height="1014.1515"
   inkscape:version="1.4.2 (ebf0e940d0, 2025-05-08)"
   xmlns:inkscape="http://www.inkscape.org/namespaces/inkscape"
   xmlns:sodipodi="http://sodipodi.sourceforge.net/DTD/sodipodi-0.dtd"
   xmlns="http://www.w3.org/2000/svg"
   xmlns:svg="http://www.w3.org/2000/svg">
  <defs
     id="defs1" />
  <sodipodi:namedview
     id="namedview1"
     pagecolor="#ffffff"
     bordercolor="#000000"
     borderopacity="0.25"
     inkscape:showpageshadow="2"
     inkscape:pageopacity="0.0"
     inkscape:pagecheckerboard="false"
     inkscape:deskcolor="#d1d1d1"
     showgrid="false"
     inkscape:zoom="0.060032814"
     inkscape:cx="1932.2766"
     inkscape:cy="-8.3287784"
     inkscape:window-width="1408"
     inkscape:window-height="748"
     inkscape:window-x="0"
     inkscape:window-y="0"
     inkscape:window-maximized="0"
     inkscape:current-layer="svg1" />
  <path
     d="m 1232.2267,621.06061 q -5,13 -23,40 -14,20 -27,36 -33,41 -43,51 l -16,14 q -20,20 -32,31 -10,9 -34,28 -86.00003,69 -202.00003,117 -111,45 -237,64.99999 -64,10 -114,11 -55,1 -115,-9 -108,-16.99999 -190,-59.49999 -82,-42.5 -134.000003,-113.5 -25,-35 -42,-83 -20.0000003,-55 -21.0000003,-103 l 15.0000003,32 q 16,32 35,55 l 21,24 q 71.000003,78 187.000003,106 100,23 227,9 79,-8 145,-28 62,-19 134,-54 46,-22 92.5,-61.5 46.5,-39.5 78.5,-82.5 l 4,-6 q 12,-18 15,-20 z m 639,-408 q 9,0 15,7 6,7 4,16 -73,319 -90,374 -15,48 -37,81 -25,36 -62,62 -76,53 -177,53 -62,0 -132,-17 -8,-1 -12,-7.5 -4,-6.5 -2,-14.5 l 26,-107 q 2,-8 8.5,-12 6.5,-4 14.5,-3 39,7 73,10 51,4 78,-2.5 27,-6.5 45,-26.5 15,-18 27,-50 8,-22 18,-67 l 33,-138 q 2,-9 -3.5,-16.5 -5.5,-7.5 -14.5,-8.5 h -5 q -9,-1 -14.5,-8 -5.5,-7 -3.5,-16 l 22,-95 q 1,-6 6.5,-10 5.5,-4 12.5,-4 z m 847,-9 q 130,0 189,52 22,19 32.5,53.5 10.5,34.5 7.5,66.5 -2,10 -5,20 -2,6 -7,9.5 -5,3.5 -11,3.5 h -123 q -7,0 -13,-4.5 -6,-4.5 -7,-12.5 -1,-4 -3,-8 -10,-19 -33,-30.5 -23,-11.5 -55,-11.5 -29,0 -59.5,14 -30.5,14 -51.5,40 -24,28 -31,64 l -21,82 q -13,54 1,87 19,43 82,43 h 1 q 35,0 55,-6 35,-10 55,-41 5,-7 8,-14 6,-11 18,-11 h 120 q 10,0 15.5,7.5 5.5,7.5 3.5,15.5 l -4,12 q -26,76 -93,120 -80,51 -204,51 -126,0 -187,-66 -61,-66 -35,-174 l 29,-122 q 26,-107 115.5,-173.5 89.5,-66.5 210.5,-66.5 z m 1141,0 q 130,0 189,52 22,19 32.5,53.5 10.5,34.5 7.5,66.5 -2,10 -5,20 -2,6 -7,9.5 -5,3.5 -11,3.5 h -123 q -7,0 -13,-4.5 -6,-4.5 -7,-12.5 -1,-4 -3,-8 -10,-19 -33,-30.5 -23,-11.5 -55,-11.5 -29,0 -59.5,14 -30.5,14 -51.5,40 -24,28 -31,64 l -21,82 q -13,54 1,87 19,43 82,43 h 1 q 35,0 55,-6 35,-10 55,-41 3,-5 8.5,-15 5.5,-10 17.5,-10 h 120 q 9,0 15,7.5 6,7.5 4,15.5 l -4,12 q -26,76 -93,120 -80,51 -204,51 -126,0 -187,-66 -61,-66 -35,-174 l 29,-122 q 26,-107 115.5,-173.5 89.5,-66.5 210.5,-66.5 z m -1750,9 q 9,0 14.5,7 5.5,7 3.5,16 l -97,403 q -2,9 4,16.5 6,7.5 15,7.5 h 244 q 9,0 15,7.5 6,7.5 4,16.5 l -23,96 q -2,6 -7,10.5 -5,4.5 -12,4.5 h -411 q -10,0 -15.5,-7.5 -5.5,-7.5 -3.5,-16.5 l 131,-547 q 2,-6 7,-10 5,-4 12,-4 z m 1185,0 q 98,0 151,36 42,29 54,79 8,37 -1,75 l -2,9 q -12,51 -28,82 -30,56 -85,88 -72,40 -186,40 h -102 l -39,161 q -2,7 -7,11 -5,4 -12,4 h -119 q -9,0 -15,-7.5 -6,-7.5 -3,-16.5 l 130,-547 q 2,-6 7,-10 5,-4 12,-4 z m -169,277 h 95 q 48,0 77.5,-21 29.5,-21 37,-55 7.5,-34 -13,-55.5 -20.5,-21.5 -68.5,-21.5 h -95 z m 1270,-277 q 111,0 168,29 45,23 56,64 7,26 0,66 -4,21 -12,38.5 -8,17.5 -22,35.5 -26,32 -82,50 49,13 66,50 15,30 7,72 -6,32 -22,63 -13,25 -27,39 -33,34 -80,53 -63,25 -156,25 h -235 q -10,0 -15.5,-7.5 -5.5,-7.5 -3.5,-16.5 l 131,-547 q 1,-6 6.5,-10 5.5,-4 12.5,-4 z m -129,340 q -7,0 -12,4 -5,4 -7,10 l -21,87 q -2,9 4,16 6,7 15,7 h 56 q 55,0 85,-22 20,-15 26,-37 4,-13 0,-26 -5,-17 -20,-27 -19,-12 -53,-12 z m 46,-231 q -7,0 -9,8 l -29,114 q -1,4 1.5,8 2.5,4 7.5,4 l 18,1 h 38 q 21,-1 42.5,-6.5 21.5,-5.5 36.5,-15 15,-9.5 24,-23.5 8,-10 10,-21 9,-36 -14,-52.5 -23,-16.5 -79,-16.5 z m -3470.00003,-78 q -3,13 -22,104 l -1,9 q -25,121 -31,151 l -1,5 160,1 -17,83 -245,1 72,-354 z m -593,238 q -12,54 -50.5,84.5 -38.5,30.5 -96,30.5 -57.500003,0 -84.000003,-32 -26.5000003,-32 -15.5000003,-86 l 4,-20 H 92.226667 l -5,21 q -4,22 4,32 7,9 24.000003,9 20,0 33.5,-12.5 13.5,-12.5 17.5,-34.5 l 48,-232 h 84 z m 940.00003,-237 q 56,-2 92,22 36,24 44,69 1,4 1,14 v 10 l -81,-1 -2,-5 q -9,-21 -24.5,-31 -15.5,-10 -40.5,-9 -38,1 -65.5,30 -27.5,29 -35.5,79 -8,50 10.5,77.5 18.5,27.5 56.5,26.5 24,-1 46,-14 22,-13 35,-35 l 1,-2 h 81 q -8,22 -18,38 -27,38 -66.5,59.5 -39.5,21.5 -89.5,23.5 h -8 q -54,0 -87,-26 -29,-23 -40.00003,-63 -9,-37 -2,-81 12.00003,-75 58.00003,-123 53,-56 135,-59 z m -858.00003,101 q 35,-48 96,-76 57,-27 118.5,-28.5 61.5,-1.5 102.5,23.5 44,28 49,81 4,39 -12,74 -16,35 -46,58 -30,23 -66,28 -33,4 -49,-8 -9,-6 -14,-19 l -2,-4 -8,6 q -15,12 -31,17 -29,10 -53,0 -24,-10 -26.5,-35.5 -2.5,-25.5 13.5,-54.5 16,-29 43,-48 29,-22 61,-24 21,-1 31,5 7,4 10,12 l 7,-13 h 43 l -24,51 q -23,53 -23.5,65 -0.5,12 11.5,15 9,2 24,-2 12,-3 20,-8 26,-16 39.5,-48 13.5,-32 7.5,-64 -6,-33 -30,-51 -31,-23 -78.5,-23 -47.5,0 -94.5,22 -49,22 -80,61 -35,42 -39,96 -4,39 17,66 19,23 54,34 32,10 68,6 24,-2 47,-10 12,-4 19,-6 l 7,31 q -10,6 -36,13 -23,5 -41,7 -64,5 -109,-15 -42,-18 -60.5,-55 -18.5,-37 -9.5,-84 9,-47 44,-95 z m 198,40 q -1,-8 -11,-11.5 -10,-3.5 -21,-0.5 -17,4 -31.5,18.5 -14.5,14.5 -21,32 -6.5,17.5 -3.5,29.5 5,16 25.5,13 20.5,-3 35.5,-18 4,-4 15.5,-32.5 11.5,-28.5 11.5,-30.5 z m 275,-386.00000394 q 76,-1 147.5,14.49999994 71.50003,15.5 129.50003,45.5 33,18 65.5,41.500004 32.5,23.5 56.5,48.5 16,16 31,35 20,24 24,36 l -280.00003,-1 q -1,-5 -10,-17 -7,-10 -13,-16 -42,-50 -97,-75 -100,-46.000004 -242,-36.000004 -112,9 -244,52.000004 -13,4 -44,15.5 -31,11.5 -40,14.5 l 25,-13 q 20,-11 30,-16 98,-47.000004 178,-75.000004 151,-50.9999999 283,-53.99999994 z"
     id="path1"
     style="fill:#0072fc;fill-opacity:1" />
</svg>
