<?xml version="1.0" encoding="UTF-8" standalone="no"?>
<!-- Created with Inkscape (http://www.inkscape.org/) -->
<!-- http://www.keithley.com/knowledgecenter/knowledgecenter_pdf/RFHandbook_1.pdf -->
<svg
   xmlns:svg="http://www.w3.org/2000/svg"
   xmlns="http://www.w3.org/2000/svg"
   version="1.0"
   width="300.01"
   height="66.65">
  <path
     d="M 0.04,66.65 L 299.51,66.65 L 299.51,0.1 L 0.04,0.1 L 0.04,66.65 z"
     style="fill:#ffffff;fill-opacity:1;fill-rule:nonzero;stroke:none" />
  <path
     d="M 0,3.5527e-15 L 0,66.62 L 300.01,66.62 L 300.01,3.5527e-15 L 0,3.5527e-15 z M 13.69,13.38 L 19.4,13.38 L 19.4,53.9 L 13.69,53.9 L 13.69,13.38 z M 42.39,13.38 L 47.91,13.38 L 27.84,30.07 L 47.23,53.9 L 39.07,53.9 L 20.55,30.94 L 42.39,13.38 z M 57.13,13.38 L 83.41,13.38 L 83.41,16.66 L 59.64,16.66 C 58.96,16.66 58.46,17.16 58.46,17.84 L 58.46,30.44 L 83.41,30.44 L 83.41,33.82 L 58.46,33.82 L 58.46,49.43 C 58.46,50.11 59.08,50.7 59.73,50.7 L 83.41,50.7 L 83.41,53.99 L 57.13,53.99 C 54.52,53.99 52.47,51.82 52.47,49.24 L 52.47,18.12 C 52.47,15.55 54.55,13.38 57.13,13.38 z M 89.98,13.38 L 96.38,13.38 L 96.38,53.9 L 89.98,53.9 L 89.98,13.38 z M 102.67,13.38 L 137.8,13.38 L 137.8,16.66 L 122.93,16.66 L 122.93,53.9 L 116.64,53.9 L 116.64,16.66 L 102.67,16.66 L 102.67,13.38 z M 143.6,13.38 L 150.3,13.38 L 150.3,30.16 L 171.43,30.16 L 171.43,13.38 L 178.13,13.38 L 178.13,53.9 L 171.43,53.9 L 171.43,33.54 L 150.3,33.54 L 150.3,53.9 L 143.6,53.9 L 143.6,13.38 z M 189.64,13.38 L 195.66,13.38 L 195.66,49.43 C 195.66,50.14 196.16,50.7 196.84,50.7 L 217.19,50.7 L 217.19,53.9 L 194.3,53.9 C 191.75,53.9 189.64,51.85 189.64,49.24 L 189.64,13.38 z M 225.23,13.38 L 251.51,13.38 L 251.51,16.66 L 227.77,16.66 C 227.09,16.66 226.6,17.16 226.6,17.84 L 226.69,30.44 L 251.51,30.44 L 251.51,33.82 L 226.69,33.82 L 226.69,49.43 C 226.69,50.11 227.22,50.7 227.87,50.7 L 251.51,50.7 L 251.51,53.99 L 225.32,53.99 C 222.75,53.99 220.58,51.82 220.58,49.24 L 220.58,18.12 C 220.58,15.55 222.65,13.38 225.23,13.38 z M 255.39,13.38 L 262.37,13.38 L 274.78,30.35 L 287.19,13.38 L 290.79,13.38 L 276.52,33.36 L 276.52,53.9 L 270.22,53.9 L 270.22,34.5 L 255.39,13.38 z"
     style="fill:#ed1c24;fill-opacity:1;fill-rule:nonzero;stroke:none" />
</svg>
