<?xml version="1.0" encoding="utf-8"?>
<!-- Generator: Adobe Illustrator 19.2.1, SVG Export Plug-In . SVG Version: 6.00 Build 0)  -->
<svg version="1.1" id="layer" xmlns="http://www.w3.org/2000/svg" xmlns:xlink="http://www.w3.org/1999/xlink" x="0px" y="0px"
	 viewBox="0 0 652 652" style="enable-background:new 0 0 652 652;" xml:space="preserve">
<style type="text/css">
	.st0{fill:#00ADEF;}
	.st1{fill:#BBBDBF;}
</style>
<path class="st0" d="M210.5,284.6c8.1,0,7.9-3.1,7.9-11.3c0-6.5-1.6-8.3-7.9-8.3h-14.7v19.6L210.5,284.6L210.5,284.6z M237.8,270.1
	c0,12.1,0,19.1-13.4,22.3v0.8c7.8,0.3,12.8,4.6,12.8,12.8v14.6h-18.9v-10.1c0.2-5.4-2.1-9.1-7.8-9.1h-14.7v19.2h-18.9v-72.5h36.5
	C229.7,248.4,237.8,252,237.8,270.1L237.8,270.1z M149.9,292.5c0,11-3.6,12.1-13.6,12.1s-13.4-1.1-13.6-12.1v-16.6
	c0.3-10.9,3.6-12,13.6-12s13.6,1.1,13.6,12V292.5z M136.3,246.9c-19.6,0-33.6,4.3-33.6,26.9v20.8c0,22.6,13.9,26.9,33.6,26.9
	s33.6-4.3,33.6-26.9v-20.8C169.8,251.2,155.9,246.9,136.3,246.9C136.3,246.9,136.3,246.9,136.3,246.9z M74.4,302.9h-0.8l-19.8-54.7
	H21.2v72.5h19l0.1-53.8H41l19.5,53.8h32.9v-72.5H74.4L74.4,302.9z M372.2,248.1h-19.4v72.5h49.6v-16.8h-30.3V248.1z M294.7,291.4
	c0,7.6-2.6,12.4-9.7,12.4h-16.8V265H285c6.7,0,9.7,1.9,9.7,11.3V291.4L294.7,291.4z M285.5,248.1h-36.4v72.5h39
	c20.1,0,26.4-9.4,26.4-29.2v-15.2C314.5,255.7,305.6,248.1,285.5,248.1L285.5,248.1L285.5,248.1z M522.3,295.3
	c0,8.6-3.8,9.2-11.6,9.2c-11.4,0-11.8-4.2-11.8-15.2v-11.5c0-10.5,1-13.9,11.8-13.9c6.4,0,10.9,0.5,11.5,7.1v2.8h19.5V271
	c-0.4-22-9.5-24.1-28.9-24.1c-20.8,0-33.4,3.5-33.4,27.8v19c0,26.8,14.1,27.8,33.4,27.8c8.2,0,16.1,0.1,22.5-5.4
	c6.4-5.6,6.5-12.8,6.5-20.9v-2.2h-19.5L522.3,295.3L522.3,295.3z M592,283.7l24.9-35.6h-22.8l-18.2,27.2h-5.7v-27.2h-18.9v72.5h18.9
	v-28.4h5.7l19.7,28.4H619L592,283.7z M453.7,292.5c0,11-3.6,12.1-13.6,12.1s-13.4-1.1-13.6-12.1v-16.6c0.3-10.9,3.6-12,13.6-12
	s13.6,1.1,13.6,12V292.5z M440.1,246.9c-19.6,0-33.6,4.3-33.6,26.9v20.8c0,22.6,13.9,26.9,33.6,26.9s33.6-4.3,33.6-26.9v-20.8
	C473.6,251.2,459.7,246.9,440.1,246.9C440.1,246.9,440.1,246.9,440.1,246.9z M319,291.2h27.1v-15.8H319V291.2z"/>
<path class="st1" d="M350.4,345.6c4.9,0,10.3-0.1,10.6,6.2h16.6c0-19.8-11.3-19.9-27.2-19.9c-18,0-29.2,3.1-29.2,23.7v16.1
	c0,20.2,9.8,23.6,29.2,23.6c22,0,27.2-3.8,27.2-24.9v-10.9h-27.9v11.6H361c0,8.7-2.2,10.6-10.6,10.6c-8.5,0-12.3-1.2-12.3-12.2
	v-10.1C338.3,349.2,338.6,345.6,350.4,345.6z M597,363.2h-11.2v-17.1H597c6.4,0,7.4,2,7.4,8.2C604.4,362.2,603.5,363,597,363.2z
	 M600.3,331.9h-30.9v61.1h16.4v-15.7h14.5c17.1,0,21-5.9,21-23.1C621.2,338.4,615.5,331.9,600.3,331.9L600.3,331.9z M482.7,370.6
	c0,9.3-3,10.2-11.5,10.2c-8.5,0-11.2-0.9-11.5-10.2v-14.1c0.2-9.2,3-10.2,11.5-10.2c8.5,0,11.5,0.9,11.5,10.2V370.6z M471.2,331.9
	c-16.5,0-28.2,3.7-28.2,22.9v17.6c0,19.2,11.7,22.9,28.2,22.9s28.2-3.7,28.2-22.9v-17.6C499.4,335.6,487.7,331.9,471.2,331.9
	L471.2,331.9z M542,371.3c0,7.1-2.3,7.7-9.2,7.7c-6.8,0-10.6-0.1-10.6-7v-40.1h-16.1v40.4c0,14.6,2.6,20.7,26.7,20.7
	c17.7,0,25.2-4.5,25.2-20.7v-40.4H542L542,371.3L542,371.3z M413,362.7h-12.5v-16.6H413c5.3,0,6.7,1.5,6.7,7
	C419.7,360,419.9,362.6,413,362.7L413,362.7z M436.3,350.4c0-15.2-6.8-18.3-20.8-18.5h-31.1v61.1h16.1v-16.2H413
	c4.8,0,6.8,3.1,6.6,7.7v8.6h16.1v-12.3c0-6.9-4.3-10.6-10.9-10.8v-0.7C436.3,366.6,436.3,360.6,436.3,350.4L436.3,350.4z"/>
</svg>
