<?xml version="1.0" encoding="utf-8"?>
<!-- Generator: Adobe Illustrator 19.2.1, SVG Export Plug-In . SVG Version: 6.00 Build 0)  -->
<svg version="1.1" id="layer" xmlns="http://www.w3.org/2000/svg" xmlns:xlink="http://www.w3.org/1999/xlink" x="0px" y="0px"
	 viewBox="0 0 652 652" style="enable-background:new 0 0 652 652;" xml:space="preserve">
<style type="text/css">
	.st0{fill:#1B2935;}
	.st1{fill:#1CB5D8;}
</style>
<g>
	<g>
		<g>
			<g>
				<path class="st0" d="M620.4,309.1c0,5.7-4.5,10.3-10.3,10.3s-10.3-4.5-10.3-10.3s4.5-10.3,10.3-10.3
					C615.9,298.8,620.4,303.4,620.4,309.1z M601.4,309.1c0,4.9,3.7,8.9,8.7,8.9s8.7-3.8,8.7-8.9c0-4.9-3.7-8.9-8.7-8.9
					C605.1,300.4,601.4,304.2,601.4,309.1z M607.9,315h-1.4v-11.8h4.5c2.6,0,3.8,1.2,3.8,3.3s-1.4,3-3,3.3l3.5,5.2h-1.7l-3.3-5.2
					h-2.4L607.9,315L607.9,315z M609.8,308.6c1.7,0,3.5,0,3.5-2.1c0-1.7-1.4-2.1-2.8-2.1h-2.6v4.2H609.8L609.8,308.6z"/>
			</g>
		</g>
		<g>
			<path id="XMLID_234_" class="st0" d="M101.7,343.7c0.9,7.8,8.4,13.1,16.9,13.1c7,0,10.8-3,13.4-7h22.4c-3.7,8.2-8.7,14.6-15,18.8
				c-6.1,4.4-13.4,6.6-20.9,6.6c-21.1,0-39-17.1-39-39c0-20.5,16.2-39.5,38.5-39.5c11.3,0,20.9,4.4,27.8,11.7
				c9.2,9.9,12,21.8,10.3,35.2h-54.5V343.7z M134.7,327c-0.5-3.5-5-11.7-16.4-11.7s-15.8,8.2-16.4,11.7H134.7z"/>
			<path id="XMLID_232_" class="st0" d="M243.3,302.1l21.9-32.4v29.6h13.6v18.3h-13.6v55h-21.9V302.1z"/>
			<path id="XMLID_230_" class="st0" d="M285.6,299.3h20.7v8.2c2.1-4,5.9-10.8,18.6-10.8v22.1h-0.9c-11.3,0-16.5,4.2-16.5,14.4v39.5
				h-21.9L285.6,299.3L285.6,299.3z"/>
			<path id="XMLID_227_" class="st0" d="M327.7,335.9c0-17.9,12.9-39,39.5-39c26.8,0,39.5,21.1,39.5,39s-12.9,39-39.5,39
				C340.4,375,327.7,354,327.7,335.9L327.7,335.9z M349.6,336.1c0,10.6,8,18.4,17.6,18.4s17.6-7.8,17.6-18.4
				c0-10.8-8-18.4-17.6-18.4C357.6,317.4,349.6,325.3,349.6,336.1L349.6,336.1z"/>
			<path id="XMLID_225_" class="st0" d="M413.8,299.3h20.5v7.8c2.4-3.7,7.1-10.3,20.2-10.3c24.7,0,27.3,20.2,27.3,30.1V373H460v-40
				c0-8-1.7-15.1-11.5-15.1c-10.8,0-12.5,7.8-12.5,15.3v40H414L413.8,299.3L413.8,299.3z"/>
			<path id="XMLID_223_" class="st0" d="M492.2,299.3h21.9v73.4h-21.9V299.3z"/>
			<path id="XMLID_222_" class="st0" d="M503.3,292L503.3,292c-7,0-12.5-5.6-12.5-12.5l0,0c0-7,5.6-12.5,12.5-12.5l0,0
				c7,0,12.5,5.6,12.5,12.5l0,0C515.6,286.5,510.1,292,503.3,292z"/>
			<g id="XMLID_220_">
				<polygon id="XMLID_221_" class="st1" points="216,295.2 163.4,372.8 187.3,372.8 240,295.2 				"/>
			</g>
			<polygon id="XMLID_219_" class="st0" points="69.6,291.2 91.4,291.2 106.2,269.1 20.4,269.1 20.4,291.2 44.6,291.2 44.6,372.8 
				69.6,372.8 			"/>
			<polygon id="XMLID_218_" class="st0" points="202.1,358.2 209.9,372.8 235.5,372.8 216.3,337.1 			"/>
			<polygon id="XMLID_217_" class="st0" points="186.4,331.5 186.4,269.1 164.5,269.1 164.5,363.9 			"/>
			<polygon class="st0" points="595.3,299.3 571,299.3 558.3,318 545.7,299.3 521.2,299.3 546.1,336.1 521.2,372.8 545.6,372.8 
				558.3,354 571,372.8 595.5,372.8 570.6,336.1 			"/>
		</g>
	</g>
</g>
</svg>
